<svg width="102" height="111" viewBox="0 0 102 111" fill="none" xmlns="http://www.w3.org/2000/svg">
<g id="rocket 1">
<g clip-path="url(#clip0)">
<path id="Vector" d="M99.9582 2.16818C99.9582 2.16818 99.5737 13.8383 95.1172 27.5594L76.6258 7.43634C89.2343 2.5866 99.9582 2.16818 99.9582 2.16818Z" fill="#FF5249"/>
<path id="Vector_2" d="M77.4187 26.6965C80.5304 30.0829 80.5304 35.5743 77.4187 38.9607C74.3069 42.3471 69.2626 42.3471 66.1489 38.9607C63.0371 35.5722 63.0371 30.0829 66.1489 26.6965C69.2607 23.3102 74.3069 23.3102 77.4187 26.6965Z" fill="#7BD8E8"/>
<g id="Group">
<path id="Vector_3" d="M74.6017 60.4214C84.8694 77.1819 65.6488 88.0152 54.8811 88.0152C60.515 81.8842 58.8694 73.9603 58.8694 73.9603L56.7677 71.6731C62.4753 68.9328 68.5654 65.1085 74.3328 60.055L74.6017 60.4214Z" fill="#FF5249"/>
<path id="Vector_4" d="M33.7739 65.0478L33.4512 64.6966C32.4989 63.6582 32.0307 62.1536 32.3654 60.7314C33.1962 57.2106 34.4233 53.2823 36.0888 49.1697L56.7677 71.6731C52.9885 73.4855 49.3787 74.821 46.1434 75.725C44.8365 76.0893 43.4539 75.5798 42.4997 74.5435L42.1769 74.1923L33.7739 65.0478Z" fill="#FF5249"/>
<path id="Vector_5" d="M46.4282 29.762L46.7649 30.0547C42.1211 36.331 38.6069 42.9584 36.0888 49.1696L33.9871 46.8824C33.9871 46.8824 26.7056 45.0917 21.0717 51.2227C21.0717 39.5049 31.0267 18.5883 46.4282 29.762Z" fill="#FF5249"/>
</g>
<path id="flames" d="M33.7739 65.0478L42.1769 74.1923C41.5733 76.7917 40.1409 79.5277 37.9754 81.8842C33.3077 86.9638 21.0717 88.0152 21.0717 88.0152C21.0717 88.0152 22.0379 74.6996 26.7056 69.6201C28.8711 67.2635 31.3853 65.7047 33.7739 65.0478Z" fill="#FFDD78"/>
<path id="Vector_6" d="M53.5224 55.8232C54.2994 54.9755 54.2994 53.6031 53.5224 52.7576C52.7435 51.91 51.4824 51.91 50.7035 52.7576C49.9265 53.6031 49.9265 54.9755 50.7035 55.8232C51.4824 56.6687 52.7435 56.6687 53.5224 55.8232Z" fill="black"/>
<path id="Vector_7" d="M78.8771 40.4937C82.7694 36.2579 82.7702 29.4 78.8771 25.1636C74.9844 20.9276 68.6827 20.9274 64.7898 25.1636C60.9072 29.3887 60.907 36.2655 64.7904 40.4941C68.6743 44.7182 74.9936 44.7199 78.8771 40.4937ZM67.6073 28.2295C69.9428 25.688 73.7239 25.6876 76.0598 28.2295C78.3952 30.7708 78.3956 34.8858 76.0598 37.4275C73.7303 39.9627 69.9384 39.9627 67.6077 37.428C65.2779 34.891 65.2777 30.7645 67.6073 28.2295Z" fill="black"/>
<path id="Vector_8" d="M20.3589 53.2255C20.6054 53.3367 20.8643 53.3907 21.1209 53.3907C21.6395 53.3907 22.1489 53.1702 22.53 52.7557C26.5309 48.4018 31.4657 48.674 33.0778 48.9047L33.7755 49.6639C32.4025 53.2194 31.2964 56.7549 30.4852 60.1935C30.1923 61.4379 30.2912 62.7548 30.7264 63.9593C28.8084 64.9212 26.9578 66.3336 25.3466 68.0871C20.2185 73.6679 19.1772 87.2684 19.1353 87.8446C19.0895 88.477 19.3003 89.0997 19.7125 89.5482C20.0876 89.9562 20.595 90.1832 21.1209 90.1832C21.1731 90.1832 21.2255 90.181 21.2779 90.1765C21.8074 90.1312 34.3056 88.998 39.4337 83.4174C41.0444 81.6646 42.3421 79.651 43.226 77.5641C44.3978 78.0656 45.6039 78.1274 46.6884 77.8249C49.8468 76.9423 53.0953 75.7391 56.3629 74.2448L57.0605 75.004C57.2723 76.7585 57.5225 82.1288 53.5218 86.4823C52.9522 87.1023 52.7817 88.0347 53.0901 88.8447C53.3983 89.6549 54.1246 90.183 54.9305 90.183C62.8155 90.183 73.8393 85.0729 77.8994 76.817C79.6626 73.2319 80.8631 67.5601 77.0346 60.4819C78.6576 58.989 80.2209 57.4281 81.6955 55.8233C88.2737 48.6647 93.4378 39.3982 97.0448 28.2817C101.551 14.4072 101.982 2.73575 101.998 2.24579C102.018 1.64418 101.807 1.06078 101.416 0.634995C101.025 0.209424 100.491 -0.0212477 99.9359 0.00151593C99.4855 0.0190764 88.7605 0.488224 76.0116 5.39194C65.7957 9.31726 57.2805 14.9373 50.7025 22.0959C49.2285 23.7 47.7941 25.401 46.4217 27.1681C39.9176 23.0017 34.7056 24.3081 31.4108 26.2269C23.8243 30.6453 19.1286 42.6419 19.1286 51.2227C19.1292 52.0994 19.6146 52.8901 20.3589 53.2255ZM36.6163 80.3513C33.8771 83.3322 27.4513 84.9044 23.3898 85.5464C23.9799 81.1263 25.4249 74.1338 28.1639 71.153C29.6979 69.4837 31.4765 68.218 33.2643 67.5052L39.9684 74.8008C39.3134 76.7464 38.1505 78.6819 36.6163 80.3513ZM45.6987 73.6247C45.1222 73.7854 44.4544 73.5495 43.9579 73.0101C34.2877 62.4868 46.7012 75.9956 34.911 63.1649C34.4142 62.6232 34.1974 61.8967 34.3447 61.2704C34.9828 58.566 35.8173 55.7915 36.8321 52.9902L53.3065 70.9182C50.732 72.0228 48.1828 72.9308 45.6987 73.6247ZM74.3869 74.7711C71.7768 80.0781 65.205 83.99 59.2161 85.3365C61.1256 81.4261 61.5465 76.4483 60.8489 73.4298C60.6869 72.7287 60.2665 72.3762 60.243 72.3348C65.0707 69.7902 69.6426 66.7375 73.8867 63.2261C75.96 67.3482 76.1307 71.2252 74.3869 74.7711ZM94.2922 23.5413L80.3677 8.38807C87.9541 5.8238 94.554 4.86361 97.8483 4.51847C97.5309 8.10407 96.6484 15.2863 94.2922 23.5413ZM53.5206 25.1618C59.4225 18.739 67.0394 13.6274 76.166 9.94792L92.8589 28.1137C89.4781 38.0454 84.781 46.3344 78.8785 52.7574C77.0834 54.7107 75.1503 56.598 73.1331 58.3664C68.2837 62.6156 62.9462 66.2148 57.2518 69.08L38.5213 48.6972C41.1541 42.4999 44.4616 36.6915 48.3658 31.4149C49.9923 29.2181 51.7263 27.1143 53.5206 25.1618ZM33.2916 30.0497C36.5506 28.1519 40.1128 28.3379 43.9004 30.5941C40.6736 35.2123 37.8684 40.1878 35.5302 45.4418C35.5005 45.4219 35.1419 44.9313 34.4757 44.7678C34.2018 44.7004 28.9307 43.4666 23.5827 46.5596C24.8202 40.0421 28.4147 32.8902 33.2916 30.0497Z" fill="black"/>
<path id="Vector_9" d="M42.2528 98.7467L47.8867 92.6135C48.6645 91.7667 48.6643 90.3939 47.8863 89.5476C47.108 88.701 45.8465 88.7014 45.0688 89.548L39.4349 95.6812C38.6571 96.528 38.6573 97.9007 39.4353 98.7471C40.2136 99.5935 41.4751 99.5935 42.2528 98.7467Z" fill="black"/>
<path id="Vector_10" d="M14.077 68.0856L19.7129 61.9546C20.491 61.1082 20.4912 59.7354 19.7135 58.8886C18.9357 58.0418 17.6745 58.0418 16.8961 58.8882L11.2602 65.0192C10.4821 65.8656 10.4819 67.2383 11.2596 68.0851C12.0372 68.9315 13.2984 68.9324 14.077 68.0856Z" fill="black"/>
<path id="Vector_11" d="M30.9826 92.6152L17.4876 107.299C16.7094 108.145 16.7094 109.518 17.4874 110.365C18.2649 111.211 19.5266 111.212 20.3047 110.365L33.7998 95.6814C34.5779 94.8348 34.5779 93.462 33.8 92.6155C33.0224 91.7689 31.7608 91.7689 30.9826 92.6152Z" fill="black"/>
<path id="Vector_12" d="M15.0452 92.6152L1.55011 107.299C0.771965 108.145 0.771965 109.518 1.54991 110.365C2.32746 111.211 3.58911 111.212 4.36726 110.365L17.8623 95.6814C18.6405 94.8348 18.6405 93.462 17.8625 92.6155C17.0848 91.7689 15.8231 91.7689 15.0452 92.6152Z" fill="black"/>
<path id="Vector_13" d="M3.40126 91.9696L16.8943 77.2838C17.6723 76.437 17.6723 75.0645 16.8941 74.2177C16.1164 73.3713 14.8547 73.3713 14.0768 74.2179L0.583711 88.9037C-0.194237 89.7505 -0.194237 91.123 0.58391 91.9698C1.36186 92.8164 2.62331 92.8164 3.40126 91.9696Z" fill="black"/>
<path id="Vector_14" d="M59.1565 49.6902L61.9734 46.6247C62.7514 45.7781 62.7514 44.4053 61.9734 43.5585C61.1953 42.7119 59.9342 42.7119 59.1559 43.5585L56.339 46.624C55.561 47.4706 55.561 48.8434 56.339 49.6902C57.1171 50.5368 58.3783 50.5368 59.1565 49.6902Z" fill="black"/>
</g>
</g>
<defs>
<clipPath id="clip0">
<rect width="102" height="111" fill="white"/>
</clipPath>
</defs>
</svg>
